<svg xmlns="http://www.w3.org/2000/svg" viewBox="0 0 512 512" width="32" height="32">
  <rect width="512" height="512" rx="96" fill="#111111"/>
  <g transform="translate(56,56) scale(0.78)">
    <path fill="#cea645" d="M128 96c-35.3 0-64 28.7-64 64s28.7 64 64 64c15.7 0 30-5.6 41.2-15L289.6 256l-120.4 47c-11.2-9.4-25.5-15-41.2-15c-35.3 0-64 28.7-64 64s28.7 64 64 64c35.3 0 64-28.7 64-64c0-6.2-.9-12.2-2.5-17.8L320 272l128 64c17.7 0 32-14.3 32-32s-14.3-32-32-32L320 240 189.5 177.8c1.7-5.7 2.5-11.6 2.5-17.8c0-35.3-28.7-64-64-64zm0 64a32 32 0 1 1 0 64 32 32 0 0 1 0-64zm0 192a32 32 0 1 1 0 64 32 32 0 0 1 0-64z"/>
  </g>
</svg>
